<svg width="172" height="44" viewBox="0 0 172 44" fill="none" xmlns="http://www.w3.org/2000/svg">
<path d="M22.7557 41.6811V39.8179H23.6814C24.0592 39.8179 24.3426 39.8929 24.5202 40.0578C24.6977 40.219 24.7884 40.4515 24.7884 40.7364C24.7884 41.0213 24.6977 41.2537 24.5126 41.4262C24.3312 41.5986 24.0592 41.6848 23.6927 41.6848H22.7557V41.6811ZM24.1272 42.0147C24.5013 41.9473 24.7884 41.801 24.9811 41.5686C25.1776 41.3437 25.2682 41.0625 25.2682 40.7401C25.2682 40.354 25.136 40.0391 24.8678 39.7992C24.5957 39.5592 24.2066 39.4355 23.689 39.4355H22.291V43.9191H22.7595V42.0522H23.6134L24.7657 43.9191H24.7695L25.3287 43.9154L24.1272 42.0147Z" fill="white"/>
<path d="M29.1114 42.4839L30.0295 40.0622L30.9476 42.4839H29.1114ZM30.2978 39.4961H29.7688L28.0762 43.9197H28.5673L28.9716 42.8551H31.0912L31.4917 43.9197H31.9828L30.2978 39.4961Z" fill="white"/>
<path d="M35.5267 43.8097C35.2963 43.7047 35.1111 43.566 34.9751 43.3786C34.8429 43.1949 34.7711 42.9925 34.7598 42.7638H35.2509C35.2736 42.9812 35.3718 43.1724 35.5494 43.3373C35.727 43.4985 35.9839 43.581 36.3277 43.581C36.6413 43.581 36.8869 43.5061 37.072 43.3449C37.2572 43.1874 37.3478 42.9887 37.3478 42.7525C37.3478 42.5613 37.2987 42.4076 37.1967 42.2877C37.0947 42.1715 36.97 42.0815 36.8189 42.0253C36.6678 41.969 36.46 41.9053 36.1917 41.8341C35.8819 41.7516 35.6325 41.6729 35.4512 41.5941C35.2698 41.5192 35.1149 41.3955 34.9865 41.2305C34.858 41.0656 34.79 40.8481 34.79 40.5707C34.79 40.3383 34.8542 40.1321 34.9789 39.9522C35.1036 39.7722 35.2774 39.6298 35.5079 39.5248C35.7308 39.4198 35.9915 39.3711 36.2862 39.3711C36.7131 39.3711 37.0645 39.4723 37.3289 39.6747C37.5934 39.8772 37.7446 40.1396 37.7861 40.462H37.2798C37.2458 40.2783 37.1438 40.1171 36.97 39.9709C36.7924 39.8322 36.5544 39.7572 36.2522 39.7572C35.9726 39.7572 35.7421 39.8285 35.5532 39.9709C35.3643 40.1134 35.2736 40.3121 35.2736 40.5595C35.2736 40.7507 35.3227 40.9006 35.4247 41.0131C35.5267 41.1293 35.6514 41.2155 35.8063 41.2755C35.9575 41.3355 36.1653 41.3992 36.4297 41.4667C36.732 41.5492 36.9776 41.6279 37.1627 41.7066C37.3478 41.7816 37.5065 41.9053 37.635 42.0703C37.7634 42.2315 37.8315 42.4489 37.8315 42.7263C37.8315 42.9362 37.7748 43.1349 37.6614 43.3224C37.5443 43.5136 37.3743 43.6635 37.1514 43.776C36.9285 43.8884 36.6527 43.9484 36.3353 43.9484C36.0179 43.9484 35.761 43.8959 35.523 43.7947L35.5267 43.8097Z" fill="white"/>
<path d="M44.383 39.4375V43.9174H43.9183V41.8218H41.3982V43.9174H40.9297V39.4375H41.3982V41.4506H43.9183V39.4375H44.383Z" fill="white"/>
<path d="M48.113 39.4375H47.6445V43.9174H48.113V39.4375Z" fill="white"/>
<path d="M54.2253 43.0551C53.8853 43.3813 53.3904 43.5462 52.7443 43.5462H51.83V39.8086H52.7443C53.3904 39.8086 53.8853 39.9736 54.2253 40.3035C54.5654 40.6371 54.7316 41.102 54.7316 41.6868C54.7316 42.2754 54.5654 42.729 54.2253 43.0551ZM54.9168 40.4872C54.7203 40.1535 54.4369 39.8949 54.0667 39.7112C53.7002 39.5275 53.2581 39.4375 52.7443 39.4375H51.3652V43.9174H52.7443C53.2581 43.9174 53.7002 43.8274 54.0667 43.6512C54.4407 43.475 54.7203 43.2201 54.9168 42.8864C55.1094 42.5528 55.2077 42.1554 55.2077 41.6905C55.2077 41.2257 55.1094 40.8208 54.9168 40.4872Z" fill="white"/>
<path d="M65.3572 39.4375L63.8648 42.1742V43.9211H63.3963V42.1742L61.8926 39.4375H62.4215L63.6306 41.7618L64.8358 39.4375H65.3534H65.3572Z" fill="white"/>
<path d="M68.9472 42.4839L69.8691 40.0622L70.7872 42.4839H68.9472ZM70.1374 39.4961H69.6084L67.9082 43.9197H68.4031L68.8036 42.8551H70.9232L71.3275 43.9197H71.8187L70.1374 39.4961Z" fill="white"/>
<path d="M74.8511 40.4889C75.0513 40.1402 75.3234 39.8703 75.6672 39.6754C76.0148 39.4804 76.4002 39.3867 76.8271 39.3867C77.3447 39.3867 77.7905 39.5029 78.1608 39.7429C78.5348 39.9828 78.7993 40.3164 78.9731 40.7475H78.4253C78.293 40.4476 78.089 40.2115 77.8132 40.0353C77.5412 39.8591 77.2087 39.7766 76.8233 39.7766C76.4795 39.7766 76.1772 39.8516 75.9014 40.009C75.6294 40.1627 75.4178 40.3839 75.2591 40.6726C75.1004 40.9612 75.0287 41.2911 75.0287 41.6772C75.0287 42.0596 75.1042 42.3933 75.2591 42.6782C75.414 42.9631 75.6294 43.188 75.9014 43.338C76.1735 43.4917 76.4833 43.5704 76.8233 43.5704C77.2087 43.5704 77.5412 43.4842 77.8132 43.3155C78.0852 43.1468 78.2893 42.9106 78.4253 42.6145H78.9731C78.8031 43.0418 78.5349 43.3755 78.157 43.6041C77.7792 43.8403 77.3372 43.9565 76.8233 43.9565C76.3964 43.9565 76.0072 43.8591 75.6634 43.6679C75.3158 43.4729 75.0438 43.203 74.8473 42.8581C74.6508 42.5132 74.5488 42.1196 74.5488 41.6772C74.5488 41.2386 74.6471 40.8413 74.8511 40.4889Z" fill="white"/>
<path d="M85.5469 39.4375V43.9174H85.0822V41.8218H82.5583V43.9174H82.0898V39.4375H82.5583V41.4506H85.0822V39.4375H85.5469Z" fill="white"/>
<path d="M91.5274 39.4375V39.8086H90.239V43.9174H89.7705V39.8124H88.4746V39.4413H91.5274V39.4375Z" fill="white"/>
<path d="M95.0678 43.8097C94.8373 43.7047 94.6522 43.566 94.5161 43.3786C94.3839 43.1949 94.3121 42.9925 94.3008 42.7638H94.792C94.8146 42.9812 94.9129 43.1724 95.0904 43.3373C95.268 43.4985 95.5249 43.581 95.8688 43.581C96.1823 43.581 96.4279 43.5061 96.6131 43.3449C96.7982 43.1874 96.8889 42.9887 96.8889 42.7525C96.8889 42.5613 96.8397 42.4076 96.7377 42.2877C96.6357 42.1715 96.511 42.0815 96.3599 42.0253C96.2126 41.969 96.001 41.9053 95.7327 41.8341C95.4229 41.7516 95.1736 41.6729 94.9922 41.5941C94.8108 41.5192 94.6559 41.3955 94.5275 41.2305C94.399 41.0656 94.331 40.8481 94.331 40.5707C94.331 40.3383 94.3952 40.1321 94.5199 39.9522C94.6446 39.7722 94.8184 39.6298 95.0489 39.5248C95.2718 39.4198 95.5325 39.3711 95.8272 39.3711C96.2541 39.3711 96.6055 39.4723 96.87 39.6747C97.1345 39.8772 97.2856 40.1396 97.3234 40.462H96.8171C96.7831 40.2783 96.6811 40.1171 96.5073 39.9709C96.3297 39.8322 96.0917 39.7572 95.7894 39.7572C95.5098 39.7572 95.2794 39.8285 95.0904 39.9709C94.9015 40.1134 94.8108 40.3121 94.8108 40.5595C94.8108 40.7507 94.86 40.9006 94.962 41.0131C95.064 41.1293 95.1887 41.2155 95.3436 41.2755C95.4947 41.3355 95.7025 41.3992 95.967 41.4667C96.2692 41.5492 96.5148 41.6279 96.7 41.7066C96.8851 41.7816 97.0438 41.9053 97.1722 42.0703C97.3007 42.2315 97.3687 42.4489 97.3687 42.7263C97.3687 42.9362 97.312 43.1349 97.1987 43.3224C97.0816 43.5136 96.9115 43.6635 96.6886 43.776C96.4657 43.8922 96.1899 43.9484 95.8725 43.9484C95.5552 43.9484 95.2982 43.8959 95.0602 43.7947V43.8022L95.0678 43.8097Z" fill="white"/>
<path d="M106.501 43.4611C106.293 43.5585 106.059 43.611 105.798 43.611C105.579 43.611 105.39 43.566 105.216 43.4798C105.046 43.3936 104.918 43.2811 104.82 43.1349C104.725 42.9812 104.676 42.8163 104.676 42.6288C104.676 42.1302 104.982 41.7666 105.598 41.5529L107.083 43C106.901 43.2099 106.705 43.3598 106.501 43.4611ZM107.661 42.9775C107.778 42.82 107.903 42.6401 108.02 42.4414L108.526 41.5979H108.027L107.6 42.2839C107.495 42.4601 107.411 42.5838 107.351 42.6701L105.817 41.178C105.647 41.0018 105.53 40.8519 105.451 40.7244C105.371 40.5932 105.333 40.4658 105.333 40.3233C105.333 40.1546 105.398 40.0121 105.526 39.9072C105.651 39.7985 105.817 39.7422 106.021 39.7422C106.214 39.7422 106.372 39.7947 106.501 39.9072C106.626 40.0196 106.69 40.1733 106.682 40.3645H107.151C107.162 40.0721 107.068 39.8322 106.856 39.6485C106.648 39.4648 106.376 39.3711 106.044 39.3711C105.692 39.3711 105.405 39.4611 105.194 39.6373C104.978 39.8172 104.873 40.0459 104.873 40.3308C104.873 40.4995 104.91 40.6532 104.978 40.7994C105.046 40.9419 105.163 41.0993 105.318 41.2642C104.959 41.3992 104.687 41.5791 104.502 41.8153C104.313 42.0552 104.223 42.3252 104.223 42.6438C104.223 42.9137 104.287 43.1499 104.419 43.3561C104.551 43.5585 104.736 43.7197 104.978 43.8322C105.216 43.9447 105.477 44.0009 105.802 44.0009C106.127 44.0009 106.418 43.9484 106.675 43.8322C106.932 43.7197 107.173 43.5435 107.396 43.3036L108.027 43.9184L108.636 43.9222L107.661 42.9775Z" fill="white"/>
<path d="M120.035 39.4961V43.9235H119.567V40.3883L117.931 43.9197H117.591L115.955 40.3996V43.9197H115.486V39.4961H115.978L117.757 43.3311L119.533 39.4961H120.032H120.035Z" fill="white"/>
<path d="M124.01 42.4839L124.928 40.0622L125.85 42.4839H124.01ZM125.192 39.4961H124.663L122.967 43.9197H123.458L123.862 42.8551H125.982L126.382 43.9197H126.873L125.192 39.4961Z" fill="white"/>
<path d="M130.285 41.6811V39.8179H131.215C131.6 39.8179 131.876 39.8929 132.053 40.0578C132.231 40.219 132.322 40.4515 132.322 40.7364C132.322 41.0213 132.231 41.2537 132.046 41.4262C131.868 41.5986 131.592 41.6848 131.226 41.6848H130.285V41.6811ZM131.66 42.0147C132.034 41.9473 132.322 41.801 132.514 41.5686C132.711 41.3437 132.805 41.0625 132.805 40.7401C132.805 40.354 132.669 40.0391 132.401 39.7992C132.129 39.5592 131.74 39.4355 131.222 39.4355H129.824V43.9191H130.293V42.0522H131.15L132.303 43.9154H132.862L131.66 42.0147Z" fill="white"/>
<path d="M136.394 39.4375H135.926V43.9174H136.394V39.4375Z" fill="white"/>
<path d="M143.152 43.9211H142.684L140.107 40.1535V43.9211H139.639V39.4375H140.107L142.684 43.2013V39.4375H143.152V43.9174V43.9211Z" fill="white"/>
<path d="M147.127 42.4839L148.045 40.0622L148.967 42.4839H147.127ZM148.313 39.4961H147.784L146.088 43.9197H146.579L146.983 42.8551H149.103L149.503 43.9197H149.998L148.313 39.4961Z" fill="white"/>
<path d="M3.62709 16.7273C3.63087 17.1396 3.63087 17.552 3.63465 17.9719C3.64598 18.7516 3.6951 19.4564 3.782 20.09C3.8689 20.7235 4.00491 21.2409 4.19382 21.6382C4.37895 22.0394 4.64721 22.238 4.99858 22.238H3.61953C3.24549 22.238 2.90167 22.1968 2.5843 22.1106C2.26693 22.0281 1.98734 21.8631 1.74554 21.6195C1.50373 21.3758 1.31482 21.0384 1.17125 20.6073C1.02767 20.1762 0.955889 19.6213 0.955889 18.9466V16.611V14.0393V8.19493V5.62324C0.955889 4.67104 0.929442 3.77507 0.872769 2.93908C0.816096 2.10309 0.725418 1.40206 0.59318 0.843486C0.460943 0.281162 0.264475 0 0 0H8.64456C10.8208 0 12.5701 0.322394 13.8887 0.967192C15.2073 1.61199 16.1481 2.43299 16.7073 3.43017C17.2665 4.42736 17.4705 5.52201 17.3156 6.71789C17.1607 7.91377 16.6733 9.06466 15.8458 10.1631C15.0222 11.2652 13.8925 12.2437 12.4643 13.1021C11.0362 13.9606 9.33976 14.5492 7.38642 14.8641L7.25418 14.6729C8.88259 14.1856 10.239 13.4958 11.3271 12.6073C12.4152 11.7188 13.2389 10.7366 13.8018 9.66821C14.361 8.5998 14.6633 7.5089 14.7086 6.3955C14.7539 5.2821 14.5613 4.2774 14.1305 3.37768C13.7036 2.47797 13.0273 1.7357 12.1016 1.15463C11.1797 0.573565 10.0349 0.281162 8.67101 0.281162H3.63087V14.1631L3.62709 16.7273Z" fill="white"/>
<path d="M122.844 17.5996C122.546 18.5743 122.156 19.384 121.673 20.0288C121.189 20.6736 120.63 21.1572 119.992 21.4759C119.353 21.7945 118.707 21.952 118.046 21.952C117.32 21.952 116.606 21.7683 115.904 21.3971C115.201 21.026 114.566 20.4824 114.007 19.7627C113.448 19.0429 112.994 18.1469 112.654 17.0785C112.314 16.0101 112.144 14.7655 112.144 13.3447C112.144 12.0326 112.292 10.8892 112.59 9.91449C112.888 8.93979 113.278 8.13005 113.761 7.48525C114.245 6.84046 114.804 6.35685 115.443 6.0382C116.081 5.71955 116.727 5.5621 117.388 5.5621C118.114 5.5621 118.828 5.74579 119.531 6.11692C120.233 6.48806 120.868 7.03539 121.427 7.75142C121.986 8.47119 122.44 9.36716 122.78 10.4356C123.12 11.504 123.29 12.7486 123.29 14.1694C123.29 15.4852 123.139 16.6286 122.844 17.5996ZM123.437 7.38778C122.655 6.67925 121.767 6.14692 120.766 5.79828C119.765 5.44964 118.737 5.27344 117.683 5.27344C116.648 5.27344 115.631 5.44964 114.63 5.79828C113.629 6.14692 112.737 6.67925 111.959 7.38778C111.177 8.09631 110.554 8.98103 110.077 10.0382C109.605 11.0991 109.367 12.3362 109.367 13.7533C109.367 15.1741 109.601 16.4112 110.077 17.4684C110.55 18.5293 111.177 19.4103 111.959 20.1225C112.741 20.8311 113.629 21.3634 114.63 21.712C115.631 22.0607 116.659 22.2369 117.713 22.2369C118.749 22.2369 119.765 22.0607 120.766 21.712C121.767 21.3634 122.655 20.8348 123.437 20.1225C124.219 19.414 124.843 18.5293 125.319 17.4684C125.791 16.4112 126.029 15.1703 126.029 13.7533C126.029 12.3362 125.791 11.0954 125.319 10.0382C124.843 8.98103 124.216 8.09631 123.437 7.38778Z" fill="white"/>
<path d="M133.662 3.91063C134.233 4.58917 134.935 5.02403 135.774 5.21148L135.838 5.08402C135.574 4.93781 135.358 4.68289 135.196 4.32301C135.03 3.96312 134.943 3.57699 134.932 3.16462C134.92 2.75225 134.981 2.35862 135.113 1.98748L135.124 1.95374C135.26 1.57511 134.969 1.17773 134.55 1.17773C133.488 1.17773 132.755 2.22741 133.186 3.16462C133.318 3.43828 133.473 3.6857 133.662 3.91063Z" fill="white"/>
<path d="M136.278 21.6458C136.093 21.2485 135.957 20.7386 135.87 20.1126C135.783 19.4865 135.734 18.7855 135.723 18.0132C135.715 17.5409 135.715 17.0835 135.711 16.6187H135.723C135.711 15.7864 135.708 15.0329 135.708 14.3469V12.7836V8.77612C135.708 7.99636 135.326 7.2616 134.68 6.793L133.07 5.63086V14.0507V16.6224H133.074V18.9879C133.074 19.6552 133.146 20.2063 133.286 20.6337C133.425 21.061 133.614 21.3947 133.856 21.6346C134.094 21.8745 134.37 22.0357 134.687 22.1219C135.001 22.2044 135.341 22.2457 135.711 22.2457H137.079C136.731 22.2419 136.463 22.0432 136.278 21.6458Z" fill="white"/>
<path d="M24.914 3.91063C25.4845 4.58917 26.1873 5.02403 27.0261 5.21148L27.0903 5.08402C26.8258 4.93781 26.6104 4.68289 26.448 4.32301C26.2817 3.96312 26.1948 3.57699 26.1835 3.16462C26.1722 2.75225 26.2326 2.35862 26.3649 1.98748L26.3762 1.95374C26.5122 1.57511 26.2213 1.17773 25.8019 1.17773C24.7402 1.17773 24.0073 2.22741 24.438 3.16462C24.5664 3.43828 24.7251 3.6857 24.914 3.91063Z" fill="white"/>
<path d="M27.528 21.6458C27.3429 21.2485 27.2069 20.7386 27.12 20.1126C27.0331 19.4865 26.984 18.7855 26.9726 18.0132C26.9651 17.5409 26.9651 17.0835 26.9613 16.6187H26.9726C26.9613 15.7864 26.9575 15.0329 26.9575 14.3469V12.7836V8.77612C26.9575 7.99636 26.5759 7.2616 25.9298 6.793L24.3203 5.63086V14.0507V16.6224H24.3241V18.9879C24.3241 19.6552 24.3959 20.2063 24.5357 20.6337C24.6755 21.061 24.8644 21.3947 25.1062 21.6346C25.3442 21.8745 25.62 22.0357 25.9374 22.1219C26.251 22.2044 26.591 22.2457 26.9613 22.2457H28.329C27.9776 22.2419 27.7132 22.0432 27.528 21.6458Z" fill="white"/>
<path d="M159.189 21.6548C159 21.2611 158.864 20.7476 158.777 20.114C158.69 19.4804 158.637 18.7682 158.629 17.9847C158.618 17.2012 158.614 16.4289 158.614 15.6641V10.9294C158.614 9.99592 158.459 9.19367 158.153 8.51513C157.843 7.83659 157.432 7.26676 156.918 6.79816C156.4 6.33331 155.807 5.98841 155.134 5.76723C154.462 5.54605 153.778 5.43359 153.072 5.43359C152.41 5.43359 151.753 5.52732 151.092 5.71851C150.431 5.9097 149.815 6.2021 149.244 6.59198C148.674 6.98561 148.171 7.46546 147.744 8.03903C147.317 8.6126 146.992 9.27614 146.77 10.0409V8.75131C146.77 7.94156 146.377 7.18055 145.704 6.69695L144.132 5.56105V13.9809C144.132 14.7419 144.125 15.6004 144.117 16.5526H144.129L144.117 18.9369C144.117 19.6154 144.189 20.1702 144.333 20.6051C144.476 21.04 144.669 21.3774 144.911 21.621C145.152 21.8647 145.432 22.0296 145.753 22.1121C146.071 22.1983 146.418 22.2396 146.792 22.2396H148.179C147.827 22.2396 147.559 22.0446 147.37 21.651C147.181 21.2574 147.045 20.7438 146.958 20.1102C146.872 19.4767 146.822 18.7644 146.811 17.9809C146.8 17.1974 146.796 16.4252 146.796 15.6604V11.9041C146.841 11.0606 147.004 10.3033 147.291 9.64353C147.608 8.91251 148.013 8.2977 148.496 7.80286C148.98 7.30426 149.524 6.92937 150.128 6.67445C150.733 6.41953 151.341 6.29208 151.957 6.29208C152.486 6.29208 152.992 6.38579 153.476 6.57698C153.959 6.76817 154.386 7.06433 154.76 7.46545C155.134 7.86658 155.429 8.36893 155.652 8.97249C155.871 9.57605 155.981 10.2921 155.981 11.1168L155.947 18.9331C155.947 19.6117 156.019 20.1665 156.162 20.6013C156.306 21.0362 156.498 21.3736 156.74 21.6173C156.982 21.8609 157.262 22.0259 157.583 22.1084C157.9 22.1946 158.248 22.2358 158.622 22.2358H160.008C159.646 22.2433 159.374 22.0446 159.189 21.6548Z" fill="white"/>
<path d="M65.1224 6.11405C64.363 6.38771 63.664 6.78509 63.0293 7.30617C62.3907 7.82351 61.8353 8.46081 61.3631 9.21057C60.8908 9.96409 60.5432 10.8038 60.3241 11.7373V8.75322C60.3241 7.95472 59.9311 7.2012 59.2662 6.71761L57.6831 5.57422V13.9941C57.6831 14.6914 57.6869 15.6548 57.6831 16.547L57.6793 16.5508L57.668 18.935C57.668 19.6136 57.7398 20.1684 57.8833 20.6033C58.0269 21.0381 58.2196 21.3755 58.4614 21.6192C58.7032 21.8629 58.9828 22.0278 59.3039 22.1103C59.6213 22.1965 59.9689 22.2377 60.3429 22.2377H61.7296C61.3782 22.2377 61.1061 22.0428 60.921 21.6492C60.7321 21.2556 60.5961 20.742 60.5092 20.1084C60.4223 19.4711 60.3732 18.7626 60.3618 17.9791C60.3505 17.1956 60.3467 16.4233 60.3467 15.6586V13.6342C60.3883 12.8095 60.5092 12.0784 60.7057 11.4486C60.9588 10.6426 61.3026 9.97158 61.7447 9.43175C62.1829 8.89192 62.6968 8.49455 63.2786 8.23963C63.8605 7.98471 64.4839 7.85725 65.1413 7.85725C65.6891 7.85725 66.2634 7.95473 66.8566 8.14217L67.4498 5.69792C66.6564 5.70167 65.878 5.84039 65.1224 6.11405Z" fill="white"/>
<path d="M172.001 6.26013V6.00521H169.624V4.6144C169.624 3.81215 169.227 3.05488 168.559 2.57878L166.953 1.43164V6.00521H165.105V6.26013H166.953V18.9349C166.953 19.6134 167.025 20.1683 167.168 20.6031C167.312 21.038 167.505 21.3754 167.746 21.6191C167.988 21.8627 168.268 22.0277 168.589 22.1102C168.906 22.1964 169.254 22.2376 169.628 22.2376H171.015C170.663 22.2376 170.391 22.0352 170.206 21.6341C170.017 21.2329 169.881 20.7119 169.794 20.0783C169.707 19.441 169.658 18.7325 169.647 17.949C169.636 17.1655 169.632 16.3932 169.632 15.6285V6.25639H172.001V6.26013Z" fill="white"/>
<path d="M47.8057 20.0984C46.7176 20.6795 45.6106 20.9719 44.4922 20.9719C43.7215 20.9719 42.9696 20.8407 42.2329 20.5745C41.4961 20.3083 40.8274 19.9297 40.2228 19.4311C39.6183 18.9325 39.0856 18.314 38.6247 17.5717C37.5176 15.8023 37.4383 13.7591 37.4383 13.7591C37.4156 13.4405 37.4043 13.1031 37.4043 12.7432C37.4043 10.4977 37.8879 8.73946 38.8551 7.46861C39.8224 6.19776 41.1976 5.56421 42.9772 5.56421H43.0112C44.6698 5.57546 46.1206 6.61762 46.7403 8.09841C47.2994 9.43674 47.6546 11.5698 45.3914 13.2193C44.2542 14.0478 42.9432 14.7976 41.3185 15.2849L41.4508 15.4761C43.4079 15.1575 45.0514 14.4864 46.5287 13.7142C49.3057 12.2634 49.4984 10.4602 49.2188 9.2643C49.0525 8.54828 48.6558 7.89972 48.1307 7.37114C48.0853 7.32615 48.0362 7.27742 47.9871 7.23243C47.3939 6.67011 46.6723 6.20526 45.8259 5.83413C44.9796 5.46299 44.0275 5.2793 42.9734 5.2793C41.9382 5.2793 40.9294 5.45924 39.9395 5.81913C38.9496 6.17902 38.0655 6.7151 37.2834 7.42363C36.5013 8.13215 35.8779 9.00189 35.4056 10.0291C34.9333 11.0562 34.6953 12.2371 34.6953 13.5717C34.6953 14.9475 34.9258 16.1771 35.3867 17.2568C35.8477 18.3365 36.4635 19.2474 37.2343 19.9897C38.005 20.732 38.8891 21.2905 39.8904 21.6729C40.8916 22.0553 41.9193 22.2465 42.9734 22.2465C44.4469 22.2465 45.8864 21.8641 47.2957 21.1031C48.7012 20.3421 49.8686 19.135 50.7905 17.4817L50.5941 17.3543C49.8233 18.5989 48.8939 19.5136 47.8057 20.0984Z" fill="white"/>
<path d="M89.4533 16.7273C89.457 17.1396 89.457 17.552 89.4608 17.9719C89.4722 18.7516 89.5213 19.4564 89.6082 20.09C89.6951 20.7235 89.8311 21.2409 90.02 21.6382C90.2051 22.0394 90.4734 22.238 90.8248 22.238H89.4457C89.0717 22.238 88.7278 22.1968 88.4105 22.1106C88.0931 22.0281 87.8135 21.8631 87.5717 21.6195C87.3299 21.3758 87.141 21.0384 86.9974 20.6073C86.8538 20.1762 86.7821 19.6213 86.7821 18.9466V16.611V14.0393V8.19493V5.62324C86.7821 4.67104 86.7556 3.77507 86.6989 2.93908C86.6423 2.10309 86.5516 1.40206 86.4194 0.843486C86.2871 0.281162 86.0906 0 85.8262 0H94.467C96.6432 0 98.3925 0.322394 99.7111 0.967192C101.03 1.61199 101.971 2.43299 102.53 3.43017C103.089 4.42736 103.293 5.52201 103.138 6.71789C102.983 7.91377 102.496 9.06466 101.668 10.1631C100.845 11.2652 99.7149 12.2437 98.2867 13.1021C96.8586 13.9606 95.1622 14.5492 93.2088 14.8641L93.0766 14.6729C94.705 14.1856 96.0614 13.4958 97.1495 12.6073C98.2376 11.7188 99.0613 10.7366 99.6242 9.66821C100.183 8.5998 100.486 7.5089 100.531 6.3955C100.576 5.2821 100.384 4.2774 99.9529 3.37768C99.526 2.47797 98.8497 1.7357 97.924 1.15463C97.0021 0.573565 95.8573 0.281162 94.4934 0.281162H89.4457V14.1631L89.4533 16.7273Z" fill="white"/>
</svg>
